#N canvas 640 83 631 515 12;
#X obj 227 140 readsf~;
#X obj 300 125 bng 15 250 50 0 empty empty empty 17 7 0 10 #fcfcfc
#000000 #000000;
#X msg 232 89 open \$1 \, 1;
#X obj 224 47 inlet;
#X obj 226 206 outlet~;
#X connect 0 0 4 0;
#X connect 0 1 1 0;
#X connect 1 0 2 0;
#X connect 2 0 0 0;
#X connect 3 0 2 0;
