#N canvas 640 83 631 515 12;
#X obj 227 140 readsf~;
#X obj 300 125 bng 15 250 50 0 empty empty empty 17 7 0 10 #fcfcfc
#000000 #000000;
#X obj 224 47 inlet;
#X obj 226 206 outlet~;
#X obj 153 263 out1~;
#X msg 232 89 open deep_focus_tenor.wav \, 1;
#X connect 0 0 3 0;
#X connect 0 0 4 0;
#X connect 0 1 1 0;
#X connect 1 0 5 0;
#X connect 2 0 5 0;
#X connect 5 0 0 0;
