#N struct line-label float x float y float z symbol label;
#N canvas 5 30 1402 825 12;
#X obj 143 388 out1~;
#X obj 90 9 vsl 15 128 0 127 0 0 empty empty empty 0 -9 0 10 #fcfcfc
#000000 #000000 0 1;
#X obj 755 48 hsl 128 15 1 50 0 0 empty empty empty -2 -8 0 10 #fcfcfc
#000000 #000000 0 1;
#X floatatom 767 149 5 0 0 0 - - - 0;
#X obj 351 334 *~ -1;
#X obj 316 381 +~;
#X obj 454 48 mtof;
#X obj 522 11 hsl 128 15 1 12 0 0 empty empty empty -2 -8 0 10 #fcfcfc
#000000 #000000 0 1;
#X floatatom 496 69 5 0 0 0 - - - 0;
#X obj 496 46 int;
#X obj 403 8 sigmund~;
#X obj 349 480 spectrum~;
#X obj 477 259 hfilter~;
#X obj 560 260 hfilter~, f 19;
#X obj 646 230 + 2;
#X obj 727 261 hfilter~, f 19;
#X obj 813 231 + 2;
#X obj 898 261 hfilter~, f 19;
#X obj 984 231 + 2;
#X obj 1100 258 hfilter~, f 18;
#X obj 1180 224 + 2;
#X obj 215 46 sawtooth~;
#X obj 286 115 +~;
#X obj 148 159 sample~;
#X obj 155 134 bng 15 250 50 0 empty empty empty 17 7 0 10 #fcfcfc
#000000 #000000;
#X floatatom 391 68 5 0 0 0 - - - 0;
#X connect 1 0 21 0;
#X connect 2 0 3 0;
#X connect 3 0 12 3;
#X connect 3 0 13 3;
#X connect 3 0 15 3;
#X connect 3 0 17 3;
#X connect 3 0 19 3;
#X connect 4 0 5 0;
#X connect 5 0 0 0;
#X connect 5 0 11 0;
#X connect 6 0 12 1;
#X connect 6 0 13 1;
#X connect 6 0 15 1;
#X connect 6 0 19 1;
#X connect 7 0 9 0;
#X connect 8 0 12 2;
#X connect 8 0 14 0;
#X connect 9 0 8 0;
#X connect 10 0 6 0;
#X connect 10 0 25 0;
#X connect 12 0 4 0;
#X connect 13 0 4 0;
#X connect 14 0 16 0;
#X connect 14 0 13 2;
#X connect 15 0 4 0;
#X connect 16 0 18 0;
#X connect 16 0 15 2;
#X connect 17 0 4 0;
#X connect 18 0 20 0;
#X connect 18 0 17 2;
#X connect 19 0 4 0;
#X connect 20 0 19 2;
#X connect 21 0 22 0;
#X connect 22 0 5 0;
#X connect 22 0 10 0;
#X connect 22 0 12 0;
#X connect 22 0 13 0;
#X connect 22 0 15 0;
#X connect 22 0 17 0;
#X connect 22 0 19 0;
#X connect 23 0 22 0;
#X connect 24 0 23 0;
