#N struct line-label float x float y float z symbol label;
#N canvas 0 25 1408 847 12;
#X obj 158 55 bng 15 250 50 0 empty empty empty 17 7 0 10 #fcfcfc #000000
#000000;
#X msg 90 19 open ../deep_focus_tenor.wav \, 1;
#X obj 305 144 sigmund~;
#X obj 316 109 lop~ 10;
#X obj 282 240 sig~;
#X obj 116 520 +~;
#X obj 346 245 sig~;
#X obj 413 242 sig~;
#X obj 486 238 sig~;
#X obj 281 517 spectrum~;
#X obj 559 151 spectrum~;
#X obj 1316 577 bng 15 250 50 0 empty empty empty 17 7 0 10 #fcfcfc
#000000 #000000;
#X obj 284 170 * 1;
#X obj 37 50 readsf~;
#X obj 95 698 out2~;
#X obj 346 169 * 1.5;
#X obj 412 166 * 3;
#X obj 224 300 vcf~ 1;
#X obj 326 301 vcf~ 1;
#X obj 398 299 vcf~ 1;
#X obj 478 302 vcf~ 1;
#X obj 38 343 out2~;
#X obj 1250 459 tgl 15 0 empty empty empty 17 7 0 10 #fcfcfc #000000
#000000 0 1;
#X obj 1253 497 metro 2000;
#X obj 485 166 * 4.5;
#X connect 0 0 1 0;
#X connect 1 0 13 0;
#X connect 2 0 12 0;
#X connect 2 0 15 0;
#X connect 2 0 16 0;
#X connect 2 0 24 0;
#X connect 3 0 2 0;
#X connect 4 0 17 1;
#X connect 5 0 14 1;
#X connect 5 0 9 0;
#X connect 5 0 14 0;
#X connect 6 0 18 1;
#X connect 7 0 19 1;
#X connect 8 0 20 1;
#X connect 11 0 10 1;
#X connect 11 0 9 1;
#X connect 12 0 4 0;
#X connect 13 0 3 0;
#X connect 13 0 10 0;
#X connect 13 0 17 0;
#X connect 13 0 18 0;
#X connect 13 0 19 0;
#X connect 13 0 20 0;
#X connect 13 0 21 0;
#X connect 13 0 21 1;
#X connect 13 1 0 0;
#X connect 15 0 6 0;
#X connect 16 0 7 0;
#X connect 17 0 5 0;
#X connect 18 0 5 0;
#X connect 19 0 5 0;
#X connect 22 0 23 0;
#X connect 23 0 11 0;
#X connect 24 0 8 0;
