#N canvas 347 150 986 603 10;
#X obj 437 457 s tone1;
#N canvas 78 354 600 400 tone2 0;
#X obj 124 205 outlet~;
#X obj 258 182 switch~ 0;
#X obj 266 140 r tone2;
#X obj 123 161 osc~ 100;
#X connect 2 0 1 0;
#X connect 3 0 0 0;
#X restore 421 263 pd tone2;
#N canvas 0 31 600 400 tone3 0;
#X obj 124 205 outlet~;
#X obj 258 182 switch~ 0;
#X obj 266 141 r tone3;
#X obj 123 161 osc~ 150;
#X connect 2 0 1 0;
#X connect 3 0 0 0;
#X restore 476 263 pd tone3;
#N canvas 32 253 600 400 tone4 0;
#X obj 124 205 outlet~;
#X obj 258 182 switch~ 0;
#X obj 266 141 r tone4;
#X obj 129 162 osc~ 200;
#X connect 2 0 1 0;
#X connect 3 0 0 0;
#X restore 531 263 pd tone4;
#N canvas 0 0 600 400 tone5 0;
#X obj 124 205 outlet~;
#X obj 258 182 switch~ 0;
#X obj 266 141 r tone5;
#X obj 121 160 osc~ 250;
#X connect 2 0 1 0;
#X connect 3 0 0 0;
#X restore 588 263 pd tone5;
#X obj 491 457 s tone2;
#X obj 542 457 s tone3;
#X obj 592 457 s tone4;
#X obj 643 457 s tone5;
#X text 587 101 argument 2: fade time in msec;
#X text 587 81 argument 1: number of input channels (1-10);
#X text 702 472 switch tones on & off when needed;
#X msg 159 530 \; pd dsp 1;
#X msg 227 531 \; pd dsp 0;
#X text 172 564 ON;
#X text 245 565 OFF;
#N canvas 29 106 600 400 tone6 0;
#X obj 124 205 outlet~;
#X obj 258 182 switch~ 0;
#X obj 124 162 osc~ 300;
#X obj 265 140 r tone6;
#X connect 2 0 0 0;
#X connect 3 0 1 0;
#X restore 647 263 pd tone6;
#N canvas 0 0 600 400 tone7 0;
#X obj 124 205 outlet~;
#X obj 258 182 switch~ 0;
#X obj 266 140 r tone7;
#X obj 124 162 osc~ 350;
#X connect 2 0 1 0;
#X connect 3 0 0 0;
#X restore 702 263 pd tone7;
#N canvas 0 0 600 400 tone8 0;
#X obj 124 205 outlet~;
#X obj 258 182 switch~ 0;
#X obj 266 141 r tone8;
#X obj 123 162 osc~ 400;
#X connect 2 0 1 0;
#X connect 3 0 0 0;
#X restore 757 263 pd tone8;
#N canvas 32 253 600 400 tone9 0;
#X obj 124 205 outlet~;
#X obj 258 182 switch~ 0;
#X obj 266 141 r tone9;
#X obj 129 162 osc~ 450;
#X connect 2 0 1 0;
#X connect 3 0 0 0;
#X restore 812 263 pd tone9;
#N canvas 0 0 600 400 tone10 0;
#X obj 124 205 outlet~;
#X obj 258 182 switch~ 0;
#X obj 266 141 r tone10;
#X obj 123 162 osc~ 500;
#X connect 2 0 1 0;
#X connect 3 0 0 0;
#X restore 869 263 pd tone10;
#X obj 437 480 s tone6;
#X obj 491 480 s tone7;
#X obj 542 480 s tone8;
#X obj 592 480 s tone9;
#X obj 643 480 s tone10;
#X floatatom 185 448 0 0 0 0 - - - 0;
#N canvas 159 26 495 270 output 0;
#X obj 338 160 t b;
#X obj 338 110 f;
#X obj 338 60 inlet;
#X text 344 29 mute;
#X obj 338 185 f;
#X msg 425 178 0;
#X msg 338 85 bang;
#X obj 338 135 moses 1;
#X obj 425 153 t b f;
#X obj 397 117 moses 1;
#X obj 83 148 dbtorms;
#X obj 397 92 r master-lvl;
#X obj 83 42 r master-lvl;
#X obj 338 210 s master-lvl;
#X obj 22 182 inlet~;
#X obj 199 41 inlet;
#X text 199 18 level;
#X obj 199 100 s master-lvl;
#X msg 96 65 set \$1;
#X obj 96 89 outlet;
#X msg 214 64 \; pd dsp 1;
#X obj 83 194 line~;
#X obj 22 212 *~;
#X obj 22 241 dac~;
#X obj 83 171 pack 0 50;
#X text 20 159 audio;
#X text 93 110 show level;
#X connect 0 0 4 0;
#X connect 1 0 7 0;
#X connect 2 0 6 0;
#X connect 4 0 13 0;
#X connect 5 0 13 0;
#X connect 6 0 1 0;
#X connect 7 0 0 0;
#X connect 7 1 8 0;
#X connect 8 0 5 0;
#X connect 9 1 4 1;
#X connect 10 0 24 0;
#X connect 11 0 1 1;
#X connect 11 0 9 0;
#X connect 12 0 10 0;
#X connect 12 0 18 0;
#X connect 14 0 22 0;
#X connect 15 0 17 0;
#X connect 15 0 20 0;
#X connect 18 0 19 0;
#X connect 21 0 22 1;
#X connect 22 0 23 0;
#X connect 22 0 23 1;
#X connect 24 0 21 0;
#X restore 157 500 pd output;
#X msg 205 470 MUTE;
#X text 214 447 <-- output amplitude;
#N canvas 0 0 600 400 tone1 0;
#X obj 124 205 outlet~;
#X obj 258 182 switch~ 0;
#X obj 266 141 r tone1;
#X obj 124 162 osc~ 50;
#X connect 2 0 1 0;
#X connect 3 0 0 0;
#X restore 366 263 pd tone1;
#X text 587 121 argument 3: (optional) "linear";
#X text 587 61 polygate~ - switch between signal inputs;
#X text 587 141 If 3rd argument isn't specified \, polygate~ will;
#X text 587 161 perform equal-power crossfades between inputs;
#X text 300 210 zero = off;
#X obj 92 470 loadbang;
#X msg 92 493 86;
#X floatatom 55 187 8 0 0 0 - - - 0;
#X floatatom 256 205 4 0 10 0 - - - 0;
#X msg 256 228 choice \$1;
#X floatatom 59 322 8 0 0 0 - - - 0;
#X msg 55 225 ftime-epower \$1;
#X msg 59 354 ftime-linear \$1;
#X text 55 153 change fade-time;
#X text 55 166 equal power;
#X text 57 287 change fade-time;
#X text 57 300 linear;
#X obj 256 106 metro 80;
#X floatatom 256 85 4 0 0 0 - - - 0;
#X floatatom 311 86 4 0 0 0 - - - 0;
#X msg 350 89 1000;
#X floatatom 38 123 8 0 0 0 - - - 0;
#X obj 256 129 shuffle 1 10 0.25;
#X msg 23 89 200;
#X msg 57 90 199;
#X msg 303 56 80;
#X msg 41 62 300;
#X msg 105 54 3000;
#X msg 64 28 22;
#X msg 142 322 22;
#X msg 71 50 198;
#X msg 18 28 170;
#X msg 90 15 22;
#X obj 466 395 polygate~ 10 200;
#X obj 663 392 polygate~ 4 8000 linear;
#X text 808 391 example with linear startup;
#X text 301 198 change input channel 1- 10;
#X msg 176 327 3000;
#X text 699 551 IM 2001;
#X msg 113 29 1000;
#X obj 188 75 vsl 15 128 0 10 0 1 choice aaa choice 8 -8 1 10 #dce4fc
#3c50fc #3c50fc 5300 1;
#X msg 115 76 10000;
#X floatatom 438 176 4 0 10 0 - - - 0;
#X obj 417 146 r choice;
#N canvas 649 250 494 344 META 0;
#X text 12 165 HELP_PATCH_AUTHORS "pd meta" information added by Jonathan
Wilkes for Pd version 0.42.;
#X text 12 105 OUTLET_0 signal;
#X text 12 25 LICENSE GPL;
#X text 12 5 KEYWORDS signal;
#X text 12 145 AUTHOR Iain Mott (iain.mott@bigpond.com);
#X text 12 45 DESCRIPTION switch between signal inputs;
#X text 12 65 INLET_0 signal ftime-epower ftime-linear choice;
#X text 12 85 INLET_N signal;
#X text 12 125 OUTLET_N float;
#X restore 940 590 pd META;
#X connect 1 0 64 1;
#X connect 2 0 64 2;
#X connect 3 0 64 3;
#X connect 4 0 64 4;
#X connect 16 0 64 5;
#X connect 17 0 64 6;
#X connect 18 0 64 7;
#X connect 19 0 64 8;
#X connect 20 0 64 9;
#X connect 26 0 27 1;
#X connect 27 0 26 0;
#X connect 28 0 27 2;
#X connect 30 0 64 0;
#X connect 36 0 37 0;
#X connect 37 0 26 0;
#X connect 37 0 12 0;
#X connect 38 0 42 0;
#X connect 39 0 40 0;
#X connect 40 0 64 0;
#X connect 41 0 43 0;
#X connect 42 0 64 0;
#X connect 43 0 64 0;
#X connect 48 0 53 0;
#X connect 49 0 48 0;
#X connect 50 0 48 1;
#X connect 51 0 48 1;
#X connect 52 0 42 0;
#X connect 53 0 39 0;
#X connect 54 0 52 0;
#X connect 55 0 52 0;
#X connect 56 0 48 1;
#X connect 57 0 52 0;
#X connect 58 0 52 0;
#X connect 59 0 52 0;
#X connect 60 0 43 0;
#X connect 61 0 52 0;
#X connect 62 0 52 0;
#X connect 63 0 52 0;
#X connect 64 0 27 0;
#X connect 64 1 0 0;
#X connect 64 2 5 0;
#X connect 64 3 6 0;
#X connect 64 4 7 0;
#X connect 64 5 8 0;
#X connect 64 6 21 0;
#X connect 64 7 22 0;
#X connect 64 8 23 0;
#X connect 64 9 24 0;
#X connect 64 10 25 0;
#X connect 68 0 43 0;
#X connect 70 0 52 0;
#X connect 71 0 39 0;
#X connect 72 0 52 0;
#X connect 74 0 73 0;
